# xmcd
#
# Track frame offsets: 
#        150
#        11592
#        23537
#        37487
#        52999
#        67924
#        82368
#        94068
#        106638
#        121098
#        133736
#        146299
#        155715
#        166934
#        179298
#        191711
#        207836
#        221163
#        234213
#        250590
#
# Disc length: 3478 seconds
#
# Revision: 0
# Processed by: cddbd v1.5.2PL0 Copyright (c) Steve Scherf et al.
# Submitted via: ExactAudioCopy v0.99pb3
#
DISCID=0e0d9414
DTITLE=Velvet piano - Velvet piano
DYEAR=2007
DGENRE=Blues
TTITLE0=Lady Di
TTITLE1=Mariage D'amour
TTITLE2=LaFuite Du Temps
TTITLE3=Coeurs D'or
TTITLE4=Les Mers Mortes
TTITLE5=L'espoir
TTITLE6=Nostalgie
TTITLE7=Quantd Ma Mere Chantait
TTITLE8=Les Regrets
TTITLE9=Toujours Se Souvenir
TTITLE10=II Y A Toujours Du Soleil Au-dessus Des Nuages
TTITLE11=Le Soleil Et Les Fleurs
TTITLE12=Murmures
TTITLE13=Les Elans Du Coeur
TTITLE14=Triste Coeur
TTITLE15=Le Pas Des Hommes Libres
TTITLE16=Souvenir's D'Enfance
TTITLE17=Histoire D'un Reve
TTITLE18=Les Reves Du Matin
TTITLE19=Les Premiers Sourires De Vanessa
EXTD=
EXTT0=
EXTT1=
EXTT2=
EXTT3=
EXTT4=
EXTT5=
EXTT6=
EXTT7=
EXTT8=
EXTT9=
EXTT10=
EXTT11=
EXTT12=
EXTT13=
EXTT14=
EXTT15=
EXTT16=
EXTT17=
EXTT18=
EXTT19=
PLAYORDER=
